<svg xmlns="http://www.w3.org/2000/svg" id="jarvig-icon" viewBox="0 0 128 128">
  <defs>
    <style>
      .cls-2{fill:#fbca03;fill-opacity:.1}.cls-3{fill:#980c11}
    </style>
  </defs>
  <rect id="bg" width="128" height="128" fill="#ed1d24" rx="20" ry="20"/>
  <g id="dots">
    <path d="M12.38 5.42a3.74 3.74 0 0 0 3.48-3.48 3.76 3.76 0 0 0-.27-1.43 19.71 19.71 0 0 0-6.39 2.7 3.76 3.76 0 0 0 3.18 2.21zM30.94 5.42a3.74 3.74 0 0 0 3.48-3.48A4.16 4.16 0 0 0 34 0h-5.83a3.26 3.26 0 0 0-.71 1.94 3.74 3.74 0 0 0 3.48 3.48zM50.08 5.42a3.74 3.74 0 0 0 3.48-3.48A3.55 3.55 0 0 0 53 0h-5.69a3.26 3.26 0 0 0-.71 1.94 3.74 3.74 0 0 0 3.48 3.48zM69.22 5.42a3.74 3.74 0 0 0 3.48-3.48A3.55 3.55 0 0 0 72.16 0h-5.71a3.26 3.26 0 0 0-.71 1.94 3.74 3.74 0 0 0 3.48 3.48zM87.78 5.42a3.74 3.74 0 0 0 3.48-3.48A3.55 3.55 0 0 0 90.72 0H85a3.26 3.26 0 0 0-.71 1.94 3.74 3.74 0 0 0 3.49 3.48zM106.92 5.42a3.74 3.74 0 0 0 3.48-3.48 3.58 3.58 0 0 0-.48-1.84c-.63-.1-1.27-.1-1.92-.1h-3.85a3.26 3.26 0 0 0-.71 1.94 3.74 3.74 0 0 0 3.48 3.48zM6 10.06a3.62 3.62 0 0 0-1.46-2.71 20.28 20.28 0 0 0-3.33 5.87 3 3 0 0 0 1.31.32A3.74 3.74 0 0 0 6 10.06zM21.08 6.58a3.74 3.74 0 0 0-3.48 3.48 3.74 3.74 0 0 0 3.48 3.48 3.74 3.74 0 0 0 3.48-3.48 3.74 3.74 0 0 0-3.48-3.48zM40.22 6.58a3.74 3.74 0 0 0-3.48 3.48 3.74 3.74 0 0 0 3.48 3.48 3.74 3.74 0 0 0 3.48-3.48 3.74 3.74 0 0 0-3.48-3.48zM58.78 6.58a3.74 3.74 0 0 0-3.48 3.48 3.48 3.48 0 1 0 7 0 3.34 3.34 0 0 0-3.52-3.48zM77.92 6.58a3.74 3.74 0 0 0-3.48 3.48 3.48 3.48 0 0 0 7 0 3.74 3.74 0 0 0-3.52-3.48zM97.06 6.58a3.74 3.74 0 0 0-3.48 3.48 3.48 3.48 0 0 0 7 0c-.58-1.74-1.78-3.48-3.52-3.48zM115.62 13.54a3.74 3.74 0 0 0 3.48-3.48 3.48 3.48 0 1 0-7 0 3.74 3.74 0 0 0 3.52 3.48z" class="cls-2"/>
    <circle cx="12.38" cy="18.18" r="3.48" class="cls-2"/>
    <circle cx="30.94" cy="18.18" r="3.48" class="cls-2"/>
    <path d="M50.08 14.7a3.74 3.74 0 0 0-3.48 3.48 3.74 3.74 0 0 0 3.48 3.48 3.74 3.74 0 0 0 3.48-3.48 3.74 3.74 0 0 0-3.48-3.48zM69.22 14.7a3.74 3.74 0 0 0-3.48 3.48 3.48 3.48 0 0 0 7 0 3.74 3.74 0 0 0-3.52-3.48zM87.78 14.7a3.74 3.74 0 0 0-3.48 3.48 3.48 3.48 0 0 0 7 0 3.74 3.74 0 0 0-3.52-3.48zM106.92 14.7a3.74 3.74 0 0 0-3.48 3.48 3.48 3.48 0 1 0 7 0 3.74 3.74 0 0 0-3.52-3.48zM122 18.18a3.74 3.74 0 0 0 3.48 3.48 3.54 3.54 0 0 0 2.52-1.24V20a19.87 19.87 0 0 0-.6-4.78 3.58 3.58 0 0 0-1.92-.52 3.74 3.74 0 0 0-3.48 3.48zM2.52 30.36A3.74 3.74 0 0 0 6 26.88a3.34 3.34 0 0 0-3.48-3.48A3.54 3.54 0 0 0 0 24.64v4.48a3.54 3.54 0 0 0 2.52 1.24zM21.08 23.4a3.74 3.74 0 0 0-3.48 3.48 3.74 3.74 0 0 0 3.48 3.48 3.74 3.74 0 0 0 3.48-3.48 3.34 3.34 0 0 0-3.48-3.48zM40.22 23.4a3.74 3.74 0 0 0-3.48 3.48 3.74 3.74 0 0 0 3.48 3.48 3.74 3.74 0 0 0 3.48-3.48 3.34 3.34 0 0 0-3.48-3.48zM58.78 23.4a3.74 3.74 0 0 0-3.48 3.48 3.48 3.48 0 1 0 7 0q-.04-3.48-3.52-3.48zM77.92 23.4a3.74 3.74 0 0 0-3.48 3.48 3.48 3.48 0 1 0 7 0 3.34 3.34 0 0 0-3.52-3.48zM97.06 23.4a3.74 3.74 0 0 0-3.48 3.48 3.48 3.48 0 0 0 7 0q-.91-3.48-3.52-3.48zM115.62 30.36a3.74 3.74 0 0 0 3.48-3.48 3.34 3.34 0 0 0-3.48-3.48 3.74 3.74 0 0 0-3.48 3.48 3.74 3.74 0 0 0 3.48 3.48z" class="cls-2"/>
    <circle cx="12.38" cy="35" r="3.48" class="cls-2"/>
    <circle cx="30.94" cy="35" r="3.48" class="cls-2"/>
    <path d="M50.08 31.52A3.74 3.74 0 0 0 46.6 35a3.74 3.74 0 0 0 3.48 3.48A3.74 3.74 0 0 0 53.56 35a3.74 3.74 0 0 0-3.48-3.48zM69.22 31.52A3.74 3.74 0 0 0 65.74 35a3.48 3.48 0 0 0 7 0 3.74 3.74 0 0 0-3.52-3.48zM87.78 31.52A3.74 3.74 0 0 0 84.3 35a3.48 3.48 0 0 0 7 0 3.74 3.74 0 0 0-3.52-3.48zM106.92 31.52a3.74 3.74 0 0 0-3.48 3.48 3.48 3.48 0 0 0 7 0 3.74 3.74 0 0 0-3.52-3.48zM122 35a3.74 3.74 0 0 0 3.48 3.48 3.54 3.54 0 0 0 2.52-1.24v-4.71a3.35 3.35 0 0 0-2.52-1A3.74 3.74 0 0 0 122 35zM2.52 46.6A3.74 3.74 0 0 0 6 43.12a3.74 3.74 0 0 0-3.48-3.48A3.54 3.54 0 0 0 0 40.88v4.48a3.54 3.54 0 0 0 2.52 1.24zM21.08 39.64a3.74 3.74 0 0 0-3.48 3.48 3.74 3.74 0 0 0 3.48 3.48 3.74 3.74 0 0 0 3.48-3.48 3.74 3.74 0 0 0-3.48-3.48zM40.22 39.64a3.74 3.74 0 0 0-3.48 3.48 3.74 3.74 0 0 0 3.48 3.48 3.74 3.74 0 0 0 3.48-3.48 3.74 3.74 0 0 0-3.48-3.48zM58.78 39.64a3.74 3.74 0 0 0-3.48 3.48 3.48 3.48 0 1 0 7 0 3.34 3.34 0 0 0-3.52-3.48zM77.92 39.64a3.74 3.74 0 0 0-3.48 3.48 3.48 3.48 0 1 0 7 0 3.74 3.74 0 0 0-3.52-3.48zM97.06 39.64a3.74 3.74 0 0 0-3.48 3.48 3.48 3.48 0 0 0 7 0c-.58-1.74-1.78-3.48-3.52-3.48zM115.62 46.6a3.74 3.74 0 0 0 3.48-3.48 3.48 3.48 0 1 0-7 0 3.74 3.74 0 0 0 3.52 3.48zM12.38 48.34a3.48 3.48 0 0 0 0 7 3.74 3.74 0 0 0 3.48-3.48 3.34 3.34 0 0 0-3.48-3.52zM30.94 48.34a3.48 3.48 0 0 0 0 7 3.74 3.74 0 0 0 3.48-3.48q0-3.52-3.48-3.52zM50.08 48.34a3.48 3.48 0 0 0 0 7 3.74 3.74 0 0 0 3.48-3.48 3.34 3.34 0 0 0-3.48-3.52zM69.22 48.34a3.48 3.48 0 1 0 3.48 3.48 3.34 3.34 0 0 0-3.48-3.48zM87.78 48.34a3.48 3.48 0 1 0 3.48 3.48 3.34 3.34 0 0 0-3.48-3.48zM106.92 48.34a3.48 3.48 0 1 0 3.48 3.48 3.34 3.34 0 0 0-3.48-3.48zM122 51.82a3.74 3.74 0 0 0 3.48 3.48 3.54 3.54 0 0 0 2.52-1.24v-4.92a3.59 3.59 0 0 0-2.52-.8 3.74 3.74 0 0 0-3.48 3.48zM2.52 63.42a3.48 3.48 0 1 0 0-7A3.54 3.54 0 0 0 0 57.7v4.48a3.54 3.54 0 0 0 2.52 1.24zM21.08 56.46a3.48 3.48 0 1 0 0 7 3.48 3.48 0 1 0 0-7zM40.22 56.46a3.48 3.48 0 1 0 0 7 3.48 3.48 0 1 0 0-7zM58.78 56.46a3.48 3.48 0 1 0 3.48 3.48 3.34 3.34 0 0 0-3.48-3.48zM77.92 56.46a3.48 3.48 0 1 0 3.48 3.48 3.74 3.74 0 0 0-3.48-3.48zM97.06 56.46a3.48 3.48 0 1 0 3.48 3.48c-.54-1.74-1.74-3.48-3.48-3.48zM115.62 63.42a3.48 3.48 0 1 0-3.48-3.48 3.74 3.74 0 0 0 3.48 3.48zM12.38 64.58a3.48 3.48 0 1 0 0 7 3.48 3.48 0 0 0 0-7zM30.94 64.58a3.48 3.48 0 1 0 0 7 3.74 3.74 0 0 0 3.48-3.48 3.34 3.34 0 0 0-3.48-3.52zM50.08 64.58a3.48 3.48 0 0 0 0 7 3.48 3.48 0 0 0 0-7zM69.22 64.58a3.48 3.48 0 1 0 3.48 3.48 3.74 3.74 0 0 0-3.48-3.48zM87.78 64.58a3.48 3.48 0 1 0 3.48 3.48 3.74 3.74 0 0 0-3.48-3.48zM106.92 64.58a3.48 3.48 0 1 0 3.48 3.48 3.74 3.74 0 0 0-3.48-3.48zM122 68.06a3.74 3.74 0 0 0 3.48 3.48A3.54 3.54 0 0 0 128 70.3v-4.71a3.35 3.35 0 0 0-2.52-1 3.74 3.74 0 0 0-3.48 3.47zM2.52 80.24A3.74 3.74 0 0 0 6 76.76a3.34 3.34 0 0 0-3.48-3.48A3.54 3.54 0 0 0 0 74.52V79a3.54 3.54 0 0 0 2.52 1.24zM21.08 73.28a3.48 3.48 0 1 0 0 7 3.74 3.74 0 0 0 3.48-3.48 3.34 3.34 0 0 0-3.48-3.52zM40.22 73.28a3.48 3.48 0 0 0 0 7 3.74 3.74 0 0 0 3.48-3.48 3.34 3.34 0 0 0-3.48-3.52zM58.78 73.28a3.48 3.48 0 1 0 3.48 3.48q0-3.48-3.48-3.48zM77.92 73.28a3.48 3.48 0 1 0 3.48 3.48 3.34 3.34 0 0 0-3.48-3.48zM97.06 73.28a3.48 3.48 0 1 0 3.48 3.48q-.87-3.48-3.48-3.48z" class="cls-2"/>
    <circle cx="115.62" cy="76.76" r="3.48" class="cls-2"/>
    <path d="M12.38 81.4a3.48 3.48 0 0 0 0 7 3.48 3.48 0 1 0 0-7zM30.94 81.4a3.48 3.48 0 1 0 3.48 3.48 3.48 3.48 0 0 0-3.48-3.48zM50.08 81.4a3.48 3.48 0 1 0 3.48 3.48 3.48 3.48 0 0 0-3.48-3.48zM69.22 81.4a3.48 3.48 0 1 0 3.48 3.48 3.48 3.48 0 0 0-3.48-3.48zM87.78 81.4a3.48 3.48 0 1 0 3.48 3.48 3.48 3.48 0 0 0-3.48-3.48zM106.92 81.4a3.48 3.48 0 1 0 3.48 3.48 3.48 3.48 0 0 0-3.48-3.48zM125.48 81.4a3.48 3.48 0 1 0 2.52 5.87v-4.78a3.46 3.46 0 0 0-2.52-1.09zM2.52 96.48a3.48 3.48 0 0 0 0-7A3.54 3.54 0 0 0 0 90.76v4.48a3.54 3.54 0 0 0 2.52 1.24zM21.08 89.52a3.48 3.48 0 1 0 0 7 3.48 3.48 0 0 0 0-7zM40.22 89.52a3.48 3.48 0 1 0 0 7 3.48 3.48 0 0 0 0-7zM58.78 89.52A3.48 3.48 0 1 0 62.26 93a3.34 3.34 0 0 0-3.48-3.48zM77.92 89.52A3.48 3.48 0 1 0 81.4 93a3.74 3.74 0 0 0-3.48-3.48zM97.06 89.52a3.48 3.48 0 1 0 3.48 3.48c-.54-1.74-1.74-3.48-3.48-3.48z" class="cls-2"/>
    <circle cx="115.62" cy="93" r="3.48" class="cls-2"/>
    <path d="M12.38 98.22a3.48 3.48 0 1 0 0 7 3.74 3.74 0 0 0 3.48-3.48 3.34 3.34 0 0 0-3.48-3.52zM30.94 98.22a3.48 3.48 0 1 0 0 7 3.74 3.74 0 0 0 3.48-3.48q0-3.52-3.48-3.52zM50.08 98.22a3.48 3.48 0 1 0 0 7 3.74 3.74 0 0 0 3.48-3.48 3.34 3.34 0 0 0-3.48-3.52zM69.22 98.22a3.48 3.48 0 1 0 3.48 3.48 3.34 3.34 0 0 0-3.48-3.48zM87.78 98.22a3.48 3.48 0 1 0 3.48 3.48 3.34 3.34 0 0 0-3.48-3.48zM106.92 98.22a3.48 3.48 0 1 0 3.48 3.48 3.34 3.34 0 0 0-3.48-3.48zM122 101.7a3.74 3.74 0 0 0 3.48 3.48 3.54 3.54 0 0 0 2.52-1.24V99a3.59 3.59 0 0 0-2.52-.8 3.74 3.74 0 0 0-3.48 3.5zM6 109.82a3.74 3.74 0 0 0-3.48-3.48A3.54 3.54 0 0 0 0 107.58v.42a19.71 19.71 0 0 0 .55 4.57 3.35 3.35 0 0 0 2 .73A3.74 3.74 0 0 0 6 109.82zM21.08 106.34a3.48 3.48 0 0 0 0 7 3.48 3.48 0 1 0 0-7zM40.22 106.34a3.48 3.48 0 0 0 0 7 3.48 3.48 0 1 0 0-7zM58.78 106.34a3.48 3.48 0 1 0 3.48 3.48 3.34 3.34 0 0 0-3.48-3.48zM77.92 106.34a3.48 3.48 0 1 0 3.48 3.48 3.74 3.74 0 0 0-3.48-3.48zM97.06 106.34a3.48 3.48 0 1 0 3.48 3.48c-.54-1.74-1.74-3.48-3.48-3.48zM115.62 113.3a3.48 3.48 0 1 0-3.48-3.48 3.74 3.74 0 0 0 3.48 3.48zM12.38 114.46a3.48 3.48 0 1 0 0 7 3.48 3.48 0 0 0 0-7zM30.94 114.46a3.48 3.48 0 1 0 0 7 3.74 3.74 0 0 0 3.48-3.48 3.34 3.34 0 0 0-3.48-3.52zM50.08 114.46a3.48 3.48 0 1 0 0 7 3.48 3.48 0 0 0 0-7zM69.22 114.46a3.48 3.48 0 1 0 3.48 3.48 3.74 3.74 0 0 0-3.48-3.48zM87.78 114.46a3.48 3.48 0 1 0 3.48 3.48 3.74 3.74 0 0 0-3.48-3.48zM106.92 114.46a3.48 3.48 0 1 0 3.48 3.48 3.74 3.74 0 0 0-3.48-3.48zM122 117.94a3.62 3.62 0 0 0 1.46 2.71 20 20 0 0 0 3.35-6 3.67 3.67 0 0 0-1.33-.24 3.74 3.74 0 0 0-3.48 3.53zM21.08 123.16a3.74 3.74 0 0 0-3.48 3.48 3 3 0 0 0 .29 1.24A18.39 18.39 0 0 0 20 128h4.21a3 3 0 0 0 .35-1.36 3.34 3.34 0 0 0-3.48-3.48zM40.22 123.16a3.74 3.74 0 0 0-3.48 3.48 3 3 0 0 0 .35 1.36h6.26a3 3 0 0 0 .35-1.36 3.34 3.34 0 0 0-3.48-3.48zM58.78 123.16a3.74 3.74 0 0 0-3.48 3.48 3 3 0 0 0 .35 1.36h6.26a3 3 0 0 0 .35-1.36q0-3.48-3.48-3.48zM77.92 123.16a3.74 3.74 0 0 0-3.48 3.48 3 3 0 0 0 .35 1.36h6.26a3 3 0 0 0 .35-1.36 3.34 3.34 0 0 0-3.48-3.48zM97.06 123.16a3.74 3.74 0 0 0-3.48 3.48 3 3 0 0 0 .35 1.36h6.26a3 3 0 0 0 .35-1.36q-.87-3.48-3.48-3.48zM115.62 123.16a3.74 3.74 0 0 0-3.48 3.48 3 3 0 0 0 .16.88 20.06 20.06 0 0 0 6.36-2.64 3.4 3.4 0 0 0-3.04-1.72z" class="cls-2"/>
  </g>
  <g id="lines">
    <path d="M.09 18.24L0 18.15zM128 55v-1.09c-7 1-11.6 1.69-11.58 1.89S121 55.66 128 55zM128 57.71v-1.5c-11.79 1.58-20.42 2.83-20.4 3.11s8.64-.47 20.4-1.61zM110.83 63c0 .24 7.09-.34 17.17-1.3v-1.32c-10.11 1.37-17.2 2.41-17.17 2.62zM120.46 60c0 .15 2.88 0 7.54-.42v-.9c-4.69.71-7.56 1.19-7.54 1.32zM127.25 49.54c0 .05.27 0 .75 0v-.29c-.49.13-.76.24-.75.29zM128 47.89v-1.57c-12.18 3.07-21.24 5.45-21.17 5.72s9.06-1.56 21.17-4.15zM122.67 41c0 .13 2-.45 5.33-1.5v-.82c-3.38 1.37-5.38 2.22-5.33 2.32zM126.71 42.79a4 4 0 0 0 1.29-.27v-.4c-.85.37-1.31.6-1.29.67zM115.41 45.19c.07.2 5.08-1.37 12.59-3.87v-1.26c-7.61 2.94-12.65 4.94-12.59 5.13zM102 42.9c.14.3 11.75-5 26-11.73v-2c-14.38 7.34-26.15 13.44-26 13.73zM105 44.42c.13.27 10.18-4.32 23-10.35v-1.86c-13 6.62-23.18 11.92-23 12.21zM104.15 37.3c.12.19 5.17-2.78 12.58-7.26-10.45 6.91-18.19 12.14-18 12.38s13.82-8 29.31-17.49v-3.85C114.73 29.81 104 37 104.15 37.3zM110.68 24.23c.12.14 3.45-2.3 8.59-6.2-11 9.1-19.45 16.27-19.26 16.51s11-8 23.95-18c-12.73 10.53-23.24 19.37-23 19.63S113.47 27 127.59 16a19.52 19.52 0 0 0-1.72-4.88C117 18.54 110.51 24 110.68 24.23zM121.07 4.92a19.28 19.28 0 0 0-1.58-1.25C106.12 17.41 94.1 29.93 94.38 30.2s12.89-11.85 26.69-25.28zM122.59 6.39c-.27-.3-.55-.58-.85-.86-5.63 5.89-9.34 9.9-9.18 10s4.14-3.53 10.03-9.14zM112.12.44c-.49-.11-1-.18-1.49-.25-5.69 7.42-9.53 12.58-9.36 12.72s4.6-5 10.85-12.47zM114.33 1.05c-.48-.16-1-.3-1.46-.42C106.44 9 102 14.94 102.15 15.1s5.23-5.73 12.18-14.05zM84.52 27.5c.17.1 3-4 7.26-10.35-4.43 7.32-7.35 12.3-7.16 12.42s9.65-13.82 20-29.57h-3.71c-9.08 14.73-16.69 27.31-16.39 27.5zM80.2 23.47c.29.13 5.69-10.27 12.42-23.47h-1.87C84.62 13.07 79.93 23.34 80.2 23.47zM89 11.5c.19.08 2.65-4.51 6.28-11.5H94c-3.19 6.86-5.19 11.4-5 11.5zM77.45 22c.27.1 4-9.42 8.7-22h-1.68c-4.21 12.43-7.29 21.87-7.02 22zM71.57 24.23c.3.07 3.06-10.53 6.5-24.23h-1.7c-2.92 13.62-5.09 24.15-4.8 24.23zM74.38 22.83c.29.06 2.87-9.82 6.14-22.83h-1.63c-2.78 12.94-4.79 22.76-4.51 22.83zM68.16 11.66c.2 0 .91-4.57 1.91-11.66h-1.13c-.64 7.05-.94 11.64-.78 11.66zM70.21 10.79c.19 0 .87-4.2 1.79-10.79h-1.09c-.58 6.55-.91 10.76-.7 10.79zM62.61 0h-1c.16 5.81.33 9.46.51 9.46s.34-3.65.49-9.46zM64.5 0h-1.23c.18 8.43.4 14.08.61 14.08s.43-5.65.62-14.08zM54.34 0H53c1.31 9.56 2.29 16.17 2.53 16.14S55.24 9.53 54.34 0zM59.34 26.18c.31 0-.72-11.57-2.15-26.18h-1.71c1.93 14.65 3.52 26.22 3.86 26.18zM48.46 0h-.72a27.05 27.05 0 0 0 1.45 4.65A26.94 26.94 0 0 0 48.46 0zM47.44 0H45.9c3 11.72 5.23 20.33 5.5 20.27S49.93 11.65 47.44 0zM43.43 19.14c.26-.09-2.35-8.14-6.06-19.14h-1.58c4.21 11.12 7.39 19.24 7.64 19.14zM43.78 15.76C44 15.68 41.94 9.24 38.85 0h-1.42c3.57 9.35 6.13 15.85 6.35 15.76zM48.56 22.26c.27-.1-2.87-9.67-7.13-22.26h-1.69c4.79 12.69 8.53 22.35 8.82 22.26zM41.21 20.73c.25-.13-3.78-9-9.27-20.73h-1.75C36.25 11.88 41 20.86 41.21 20.73zM44.23 32.12C44.57 32 37.58 16.89 29.62 0h-2.21C36 17 43.89 32.28 44.23 32.12zM18.71 0l.05.06C19.17 0 19.58 0 20 0z" class="cls-3"/>
    <path d="M41.17 33.35c.34-.21-9.43-16.26-20-33.35H20c-.42 0-.83 0-1.24.06C30 17.25 40.83 33.56 41.17 33.35zM43.9 33.62c.33-.21-9.54-16.43-20.15-33.62h-2.48C32.6 17.3 43.56 33.84 43.9 33.62zM22 19.47c.21-.16-5.05-7.13-12.33-16.56-.43.26-.85.53-1.25.83 7.67 9.2 13.38 15.9 13.58 15.73zM27.34 22.12c.23-.18-5.72-8-13.7-18.35 5.69 6.78 9.61 11.34 9.79 11.2s-4-5.8-10.17-13.77a19.73 19.73 0 0 0-2.78 1.23C19.75 13.6 27.1 22.31 27.34 22.12zM18.89 23.73c7.86 7.55 13.54 12.88 13.71 12.7S19.18 21.89 4.76 7.1a19.69 19.69 0 0 0-1.91 2.68C15.39 22 26.19 32.29 26.44 32.05s-2.85-3.38-7.55-8.32zM33.47 43.61c.27-.33-16.32-14.12-33-27.85a18.4 18.4 0 0 0-.38 2.47C16.79 31.26 33.21 44 33.47 43.61zM.09 18.24C0 18.82 0 19.41 0 20v.66C14.33 31.81 26.92 41.48 27.14 41.2S14.55 30.17.09 18.24zM20.24 30.32c.19-.24-8.29-7.4-19.25-16.5-.18.57-.34 1.18-.47 1.73 10.99 8.52 19.54 15 19.72 14.77zM0 26.31V28c9.38 5.71 16.14 9.72 16.28 9.5S9.55 32.63 0 26.31zM3.25 36.23A18.74 18.74 0 0 0 0 34.3v.7a15.2 15.2 0 0 0 3.25 1.23zM22.45 48.24C22.59 48 12.72 42.81 0 36.33v1.84c12.57 5.88 22.32 10.34 22.45 10.07zM6.93 48c.06-.15-2.58-1.25-6.93-3v1c4.26 1.36 6.88 2.14 6.93 2zM21.63 51.21c.1-.27-9.25-3.9-21.63-8.57v1.67c12.27 4.14 21.53 7.17 21.63 6.9zM5.59 54.15c0-.13-1.84-.7-5.06-1.56 13.41 2.88 23.71 5 23.78 4.7S15.36 54.65 3.2 51.6a23.76 23.76 0 0 0 4.6.71c0-.15-2.95-1-7.8-2.29v3.23c3.48.68 5.56 1.03 5.59.9zM11.12 63.35c0-.2-4.36-.88-11.12-1.83v1.09c6.74.61 11.1.93 11.12.74zM18.06 62.64c0-.25-7.48-1.35-18.06-2.78v1.4c10.55 1.01 18 1.63 18.06 1.38zM1.71 67.06c13-.23 22.76-.5 22.76-.77S13.83 65.71 0 65.47v2.83c9-.2 15.15-.41 15.15-.64s-5.37-.41-13.44-.6zM0 74.78V75c.26-.07.4-.11.39-.15s-.14-.07-.39-.07zM24.5 70.51c0-.3-10.69.65-24.5 2v1.64c13.84-1.83 24.54-3.34 24.5-3.64zM0 76.48v1.74c15-2 27-3.66 27-4S15 75 0 76.48zM8.14 80.43c0-.16-3.14.4-8.14 1.41v1c5.05-1.37 8.18-2.26 8.14-2.41zM0 84v1.46c10.72-2.72 18.38-4.75 18.32-5S10.65 81.7 0 84zM.11 91.63H0v.11a.28.28 0 0 0 .11-.11zM7.17 87.16c0-.15-2.76.66-7.17 2.09v1c4.48-1.81 7.22-2.95 7.17-3.09zM15.27 90.82a25.86 25.86 0 0 0-4.56 1.83c6.76-3.5 11.17-5.87 11.07-6.06s-9.53 4-21.78 9.75v2.71c9.05-4.66 15.37-8.05 15.27-8.23zM32.34 85.18C32.18 84.84 17 91.89 0 99.9v2.2c17.09-8.65 32.51-16.58 32.34-16.92zM12.12 103.35c-.08-.14-3 1.52-7.59 4.26C18.62 98.35 30.39 90.49 30.2 90.2s-8.4 4.7-19.33 11.37c7-4.66 11.61-7.85 11.49-8S12.4 99.16 0 106.76V108a20 20 0 0 0 .34 3.57c7.13-4.75 11.91-8.03 11.78-8.22zM24.6 98.89c-.21-.26-10.4 7.52-22.87 17.2q.38.82.81 1.62c12.3-10.18 22.27-18.57 22.06-18.82zM25.3 101.57c-.2-.26-10.12 7.31-22.35 16.81.3.49.63 1 1 1.45 11.95-9.92 21.55-18.01 21.35-18.26zM14.57 119.43c13-13.36 24.42-25.29 24.16-25.55S23 108.5 7.49 123.57a20.93 20.93 0 0 0 3 2c9.32-9.66 16.37-17.09 16.16-17.3s-5.09 4.43-12.08 11.16zM28 117.26c6.9-9 11.79-15.45 11.59-15.62s-5.42 6-12.56 14.52a30.56 30.56 0 0 0 2.97-4.23c-.15-.12-3 3.14-7.34 8.28 7.88-10.19 13.72-17.9 13.5-18.08s-10.1 11.48-21.39 25.15A20.2 20.2 0 0 0 20 128h1c7.38-9.56 12.74-16.66 12.53-16.83s-2.23 2.24-5.53 6.09zM31.5 125.11a19.61 19.61 0 0 0-2.2 2.89h.7a14.12 14.12 0 0 0 1.5-2.89zM25.73 128h1.67c5.48-9 9.28-15.42 9.07-15.55s-4.66 6.38-10.74 15.55zM48.66 103.49c-.29-.14-6 10.82-12.95 24.51h1.92C44 114.44 49 103.63 48.66 103.49zM46.57 124a23 23 0 0 0-1.81 4h.72a22.63 22.63 0 0 0 1.09-4zM46.87 117.37c-.17-.07-1.87 4.12-4.38 10.63h1.16c2.11-6.41 3.4-10.57 3.22-10.63zM53.67 113.1c-.23 0-1.87 6-4.14 14.9h1.31c1.85-8.82 3.04-14.84 2.83-14.9zM55.11 113.48c-.21 0-1.8 5.84-4 14.52h1.31c1.77-8.6 2.92-14.46 2.69-14.52zM58.9 128h.16c0-.17 0-.25-.05-.25s-.07.08-.11.25zM63 108.17c-.26 0-1.48 8.32-3 19.83h1.49c1.03-11.47 1.74-19.79 1.51-19.83zM68.08 128h1.47c-.22-11.65-.48-20.14-.74-20.14s-.52 8.49-.73 20.14zM72.94 120.41c-.16 0 0 2.83.4 7.41-1.26-9.19-2.21-15.49-2.43-15.46s.28 6.38 1.15 15.64h2.2c-.68-4.72-1.17-7.61-1.32-7.59zM74.74 128h.69a22.27 22.27 0 0 0-.86-4.4 21.61 21.61 0 0 0 .17 4.4zM73.59 104.25c-.29.07 1.82 10.36 4.7 23.75H80c-3.41-13.46-6.12-23.82-6.41-23.75zM79.57 116c-.2 0 .71 4.81 2.22 12H83c-1.92-7.31-3.24-12.1-3.43-12zM87.42 126.14a6.42 6.42 0 0 0 .43 1.86h.47a7.84 7.84 0 0 0-.9-1.86zM80.32 101.11C80 101.21 84 113.21 89 128h1.87c-5.58-14.9-10.23-27-10.55-26.89zM89.39 114c-.2.1 2.32 5.75 6.12 14H97c-4.37-8.37-7.41-14.09-7.61-14zM87 101.76c-.19.08 1.92 4.85 5.21 12-3.75-7.23-6.32-12-6.51-11.92s5.1 11.82 11.83 26.16h3.32c-7.37-14.49-13.54-26.39-13.85-26.24zM102.23 120.39c-.13.08 1.46 2.89 4.13 7.36-6.2-9.35-10.74-16-11-15.88s3.74 6.83 9.41 16.13h2.84c-3.16-4.75-5.22-7.7-5.38-7.61zM104.09 120.43c-.14.09 1.51 3 4.24 7.55h1.11c-3.16-4.74-5.2-7.65-5.35-7.55zM94.79 97.34c-.28.22 9.32 12.74 20.42 27-5.53-6.6-9.33-11-9.5-10.87s3.8 5.47 9.65 13.09a19.94 19.94 0 0 0 3-1.48c-12.21-14.74-23.28-27.99-23.57-27.74zM122.35 121.88c.39-.4.76-.81 1.12-1.24-10.29-10-18.38-17.63-18.6-17.42s7.5 8.34 17.48 18.66zM126.24 116.13a16.1 16.1 0 0 0 .66-1.67c-11.75-9.11-21.12-16.25-21.32-16s9.02 8.02 20.66 17.67zM127.14 113.77a17.39 17.39 0 0 0 .47-1.89c-12.46-9.68-22.61-17.46-22.85-17.21s9.94 8.81 22.38 19.1zM107.18 89.42c-5.65-3.39-9.31-5.5-9.41-5.34s9.92 7 22.6 15.38c-4.46-2.65-7.26-4.24-7.34-4.1s6.11 4.46 15 10.34v-4.56c-13.8-8.48-25.21-15.37-25.4-15.08a33.84 33.84 0 0 0 4.55 3.36zM110.38 83.09c-.13.24 7.32 4.16 17.62 9.44v-1.62c-10.16-4.73-17.51-8.06-17.62-7.82zM121.91 90.28c-.07.13 2.24 1.41 6.09 3.45v-.94c-3.75-1.68-6-2.64-6.09-2.51zM108.56 86c-.12.26 8.21 4.62 19.44 10.36v-1.7c-11.09-5.15-19.32-8.88-19.44-8.66zM109.26 78.59c-.09.25 7.83 3.35 18.74 7.48v-1.55c-10.81-3.63-18.65-6.17-18.74-5.93zM103.38 71.05c-.07.26 8.62 2.56 20.42 5.54-4.56-.92-7.37-1.43-7.4-1.27s4.6 1.46 11.6 3.28v-2.66c-13.81-2.94-24.55-5.18-24.62-4.89zM108.46 75.21c-.06.26 8.19 2.44 19.54 5.31V79c-11.28-2.39-19.49-4-19.54-3.79zM110 66.33c0 .25 7.47 1.35 18 2.78v-1.4c-10.53-1.01-18-1.63-18-1.38zM105.78 69.19c0 .28 9.5 1.65 22.22 3.34V71c-12.68-1.26-22.19-2.09-22.22-1.81z" class="cls-3"/>
  </g>
  <g id="J">
    <path d="M51.55 83.13a4.3 4.3 0 0 0 2 1.75 6.09 6.09 0 0 0 2.93.79c1 0 1.77-.67 2.39-2A26.28 26.28 0 0 0 60.43 79a49.9 49.9 0 0 0 1.08-5.47Q61.9 70.72 63 65t2.79-15.33q1.69-9.61 3.95-19.29a98.73 98.73 0 0 0 17.68-3.22Q84.45 36.85 82 47.78 77.52 69 76.3 75.27t-2.54 11a40.28 40.28 0 0 1-3.46 8.64q-5 8.9-12.41 8.89-6 0-13.28-5.27z" class="cls-3"/>
    <path fill="#fbca03" d="M47.55 80.13a4.3 4.3 0 0 0 2 1.75 6.09 6.09 0 0 0 2.93.79c1 0 1.77-.67 2.39-2A26.28 26.28 0 0 0 56.43 76a49.9 49.9 0 0 0 1.08-5.47Q57.9 67.72 59 62t2.79-15.33q1.7-9.61 3.95-19.29a98.73 98.73 0 0 0 17.68-3.22Q80.45 33.85 78 44.78 73.52 66 72.3 72.27t-2.54 11a40.28 40.28 0 0 1-3.46 8.64q-5 8.9-12.41 8.89-6 0-13.28-5.27z"/>
  </g>
</svg>
